<svg viewBox="0 0 307 307" fill="none" xmlns="http://www.w3.org/2000/svg">
<path d="M292.837 33.8829C290.935 24.3324 281.496 14.8977 271.851 12.9297C271.851 12.9297 209.597 0.224613 153.164 0.00273224C96.7213 -0.209501 34.3498 12.0132 34.3498 12.0132C24.6957 13.904 15.1683 23.2616 13.1692 32.7928C13.1692 32.8025 0.277527 94.5142 0.00448077 150.428C-0.268565 206.342 12.0283 268.141 12.0283 268.141C13.9298 277.691 23.3694 287.126 33.0138 289.094C33.0138 289.094 95.2683 301.809 151.701 302.021C208.134 302.243 270.515 290.01 270.515 290.01C280.169 288.12 289.697 278.762 291.696 269.231C291.696 269.231 304.588 207.519 304.851 151.605C305.124 95.6912 292.827 33.8926 292.827 33.8926L292.837 33.8829Z" fill="white" vector-effect="non-scaling-stroke"/>
</svg>
